<svg xmlns="http://www.w3.org/2000/svg" viewBox="0 0 93.84 146.78"><defs><style>.cls-1,.cls-2,.cls-3,.cls-4{fill:#FF5900;}.cls-1,.cls-2,.cls-3{stroke:#FF5900;stroke-miterlimit:10;}.cls-2{stroke-width:1.25px;}.cls-3{stroke-width:0.63px;}</style></defs><g id="Calque_2" data-name="Calque 2"><g id="Calque_2-2" data-name="Calque 2"><g id="SRumBJ.tif"><path class="cls-1" d="M60.8,116.1a21.33,21.33,0,0,1-7-3.71A36,36,0,0,1,46,103.63c-.45-.74-.86-1.51-1.36-2.22a1.25,1.25,0,0,0-.82-.43,18.67,18.67,0,0,0-2,0v2.14a2.09,2.09,0,0,1-2.09,2.32,4.08,4.08,0,0,0-1.83.53c-1.86,1-4.85-.27-5.59-2.25a1.08,1.08,0,0,0-.66-.63c-2.07-.33-2.77-3.28-1.56-4.59a7.35,7.35,0,0,0,.58-.77c-1-.7-2-1.36-3-2.08a14.59,14.59,0,0,1-5.87-9.93.75.75,0,0,0-1-.7c-2.85.77-5.32,0-7.73-1.53-3.27-2-6.65-3.88-9.37-6.67A10.25,10.25,0,0,1,.81,72.63c-.09-.32-.21-.64-.31-1V69.51C2,66.11,5,64.72,8.4,64.11c2.06-.37,4.15-.58,6-.83-1.38-1.44-2.91-3-4.32-4.56-1-1.11-.71-1.64.72-1.87a2.31,2.31,0,0,0,.33-.1c1.14,1.32,2.15,2.66,3.34,3.84a24.76,24.76,0,0,0,7.8,4.76c5.11,2.25,10.53,2.93,16,3.41a6.73,6.73,0,0,1,1.49.25c.26.09.65.52.6.63a1.4,1.4,0,0,1-.74.77,4.45,4.45,0,0,1-1.42.07A47.6,47.6,0,0,1,25,68.42c-.05,0-.11,0-.18,0-.23,1.46-.45,2.92-.69,4.37-.27,1.61-.58,3.22-.83,4.83-.95,5.88,0,11.29,4.34,15.66A21.13,21.13,0,0,0,38,98.61a37,37,0,0,0,11.32,1A34.71,34.71,0,0,0,66.92,93.9a13.21,13.21,0,0,0,5.45-9.17c.38-2.24-.19-4.4-.61-6.53C71,74.43,70,70.72,69.18,67.05,66,67.81,63,68.65,60,69.19a39.25,39.25,0,0,1-5.65.28c-.58,0-.73-.4-.73-.93s.31-.66.77-.64c3.54.15,6.9-.83,10.3-1.6a29.76,29.76,0,0,0,9.22-3.71,11.49,11.49,0,0,0,5.75-8,15.63,15.63,0,0,0-.44-6.51c-1-3.71-2.05-7.41-2.86-11.17a56.1,56.1,0,0,1-.53-6,9.89,9.89,0,0,1,2.11-7.17l-.07-.25a9.75,9.75,0,0,0-1.72.21c-2.91.88-4.37,3.08-5.16,5.85-.18.61-.16,1.34-1,1.43s-1.39-.31-1.64-1.31a19.58,19.58,0,0,1-.63-6.77c.15-1.49,0-3,.25-4.49a20.87,20.87,0,0,0-1.71-11,19.38,19.38,0,0,0-2.35-3.93c-1.12-1.56-2.15-1-3,.39-.63,1.08-1,2.34-1.63,3.4a21.15,21.15,0,0,1-9.54,8,50.18,50.18,0,0,1-10,2.81c-1.87.42-3.81.54-5.66,1a18,18,0,0,0-3.78,1.64,6.92,6.92,0,0,0-3.15,4.12,1.27,1.27,0,0,1-1.21,1,1.42,1.42,0,0,1-1.45-1c-.78-2.29-2.62-3.3-4.8-3.89-.39-.1-.79-.14-1.46-.26a8.74,8.74,0,0,0,.73,1.09c1.89,2,1.76,4.19.9,6.52a8.24,8.24,0,0,1-2.21,3.19c-3.88,3.61-6.87,7.81-8.11,13.07a13.27,13.27,0,0,0,.15,7.89c.45,1.19.07,1.9-.92,2-.73.08-1.19-.35-1.44-1.29A18.66,18.66,0,0,1,9,39.36a32.09,32.09,0,0,1,5.35-7.46c.78-.83,1.57-1.66,2.38-2.45,1.87-1.82,2.46-4.12.57-6.39a8.5,8.5,0,0,1-1.06-1.66,1.87,1.87,0,0,1,.38-2.23,3,3,0,0,1,1.91-.26,15.7,15.7,0,0,1,2.53.49c2.08.5,2.24.61,4.88,2.93a22.87,22.87,0,0,1,2.5-2.86,13.66,13.66,0,0,1,6.83-2.78c4.72-.73,9.42-1.6,13.79-3.6A18.83,18.83,0,0,0,58.2,4.84a11.46,11.46,0,0,0,.69-1.74c1.38-3.76,5.23-2.85,6.86-1A18,18,0,0,1,69.48,10a25.69,25.69,0,0,1,.82,5c0,2.14-.34,4.29-.45,6.43-.08,1.55,0,3.1,0,4.65l.27.07c.22-.33.44-.66.65-1,2.1-3.32,5-3.75,8-3.46,1.41.14,1.87,1.92,1,3.33a19.75,19.75,0,0,0-1.47,2.76,8.79,8.79,0,0,0-.45,4c.31,4.94,2,9.56,3,14.32a23.34,23.34,0,0,1,.28,10.48A10,10,0,0,1,78,61.76c-.29.26-.59.5-1.1.94.68.14,1.09.26,1.5.3,2.68.31,5.39.5,8,1a10.48,10.48,0,0,1,5,2.55c2.22,1.92,2.36,4.34,1.09,6.83A15.89,15.89,0,0,1,87.18,79c-2.62,1.81-5.36,3.44-8.1,5.06a7.61,7.61,0,0,1-4.89.85v2.82c1-.29,2-.62,3.06-.82.41-.08,1.13,0,1.27.23a2.43,2.43,0,0,1,.15,1.58A5.92,5.92,0,0,1,78,90.13c.84,0,1.63,0,2.43.11a5.54,5.54,0,0,1,4,2.5,10.18,10.18,0,0,1,.49,11.91,19.71,19.71,0,0,1-10.61,8.41c-3.69,1.34-7.47,1.37-11.35,1.14a1.72,1.72,0,0,1-1,1.9Zm0-1.9-.36-.76c-.39-.78-.09-1.29.77-1.3a9.24,9.24,0,0,1,1.17.1,24.37,24.37,0,0,0,9.21-.18,17.48,17.48,0,0,0,12.24-9.68,7.3,7.3,0,0,0-.49-8A5.19,5.19,0,0,0,77,92.23a1.68,1.68,0,0,1-1.35-.09,1.3,1.3,0,0,1-.11-1.79l1-1.62c-1.13.39-2,.68-2.89,1a3,3,0,0,0-1.24.63c-1.21,1.51-2.35,3.08-3.57,4.71.23.54.6,1.29.86,2.08.39,1.15.69,2.36-.06,3.45-.48.71-1.14,1.29-1.67,2a4.55,4.55,0,0,1-5.89,1,1.32,1.32,0,0,0-.95-.13,3.13,3.13,0,0,1-3.5-1,13.49,13.49,0,0,1-1.24-2.07l-9.68.91a.62.62,0,0,0,.07.18c2.22,3.7,4.7,7.18,8.23,9.79C56.73,112.56,58.45,113.92,60.83,114.2ZM23.19,67.9c-1.84-.88-3.6-1.74-5.38-2.55A3.63,3.63,0,0,0,16.27,65c-2.36.07-4.72.1-7.06.38a9.93,9.93,0,0,0-5.78,2.78A3.31,3.31,0,0,0,3,73a26.12,26.12,0,0,0,2,2.32C8.26,78.6,12.22,80.82,16.23,83a7.37,7.37,0,0,0,2.78.61,2.15,2.15,0,0,0,2.09-2.2,23.57,23.57,0,0,1,.21-4C21.86,74.18,22.56,71.05,23.19,67.9Zm56-3.31c-3.75,0-5.7.39-8,1.38-.52.22-.58.47-.42,1a82.24,82.24,0,0,1,3.31,15.51c.09.81.44.93,1,.76a19.16,19.16,0,0,0,3.69-1.28c2.09-1.13,4.09-2.41,6.07-3.71a21.43,21.43,0,0,0,6-5.67A3.17,3.17,0,0,0,91.57,70c-.38-1.78-1.69-2.69-3.09-3.52C85.62,64.71,82.42,64.66,79.23,64.59ZM61.08,98.75c.37.92.72,1.74,1,2.57a2.08,2.08,0,0,0,1.64,1.36,3.1,3.1,0,0,0,3-.87,7,7,0,0,1-3-4.11ZM37.75,100c-1.08.14-2.2-1.07-2.87-.18s-1.61,2.4-.75,3.85a2.72,2.72,0,0,0,3.17,1C36.63,103.13,37.19,101.67,37.75,100Zm29.53-4.23a17,17,0,0,1-1.49.84.8.8,0,0,0-.41,1.18,11.78,11.78,0,0,0,1.12,2,1,1,0,0,0,1.49.32,1.43,1.43,0,0,0,.43-1.23A30.41,30.41,0,0,0,67.28,95.79Zm-26.57,5.73c-.25-.3-.48-.79-.85-.94-.62-.25-.88.21-1,.8a11.25,11.25,0,0,0-.32,1.46,3.84,3.84,0,0,0,.35,1.14c.41-.16,1-.22,1.19-.53A8.3,8.3,0,0,0,40.71,101.52Zm-7.09-2.7c-.55-.1-1.27-.43-1.54-.21a2.61,2.61,0,0,0-1,1.69,1.43,1.43,0,0,0,1.25,1.45Zm26.05.41c-1.54.31-1.64.45-1.31,1.72a1.79,1.79,0,0,0,2.3,1Z"/><path class="cls-2" d="M37.3,54.85a5.73,5.73,0,0,1-.83-.07c-1.78-.42-4.35-3.74-4.07-5.54a7.63,7.63,0,0,1,1.27-2.73,23.09,23.09,0,0,1,1.54-1.76,3.9,3.9,0,0,1,5.58-.32c.91.92,1.85,1.8,2.78,2.7A4.81,4.81,0,0,1,45,50.58a2.42,2.42,0,0,1-.67,1.5,8.48,8.48,0,0,1-5.57,2.56C38.25,54.7,37.72,54.79,37.3,54.85Zm.83-9.48c-.34.13-.72.17-.91.38-1,1.12-1.91,2.28-2.83,3.46a.79.79,0,0,0-.06.74c1,1,2,2,3,2.95a.76.76,0,0,0,.51.13,8.31,8.31,0,0,0,4.47-1.85c.83-.74.95-1.24.21-2.06-1-1.15-2.16-2.23-3.29-3.3A3.75,3.75,0,0,0,38.13,45.37Z"/><path class="cls-3" d="M80,10A8.13,8.13,0,0,1,79,14.3a2.55,2.55,0,0,1-2.29,1.49c-1.1,0-1.82-.51-1.74-1.59a4.07,4.07,0,0,0-1.4-3.5,5.3,5.3,0,0,1-1.29-4.61,1.93,1.93,0,0,1,1.63-1.72c3.48-.55,5.89,1,6.15,4.91C80,9.46,80,9.64,80,10Zm-3,3.41c.3-.75.6-1.41.83-2.1a4,4,0,0,0-2.14-5.06c-.81-.32-1.76.23-1.56,1A5.81,5.81,0,0,0,75.22,9.6c1,1,1.78,2,1.57,3.51C76.78,13.14,76.86,13.19,77,13.38Z"/><path class="cls-3" d="M25.62,12.83a21.45,21.45,0,0,1,1.05-3.44,2.61,2.61,0,0,1,1.72-1.26,46.83,46.83,0,0,1,5.8-.4c1.21,0,1.8,1.38,1.11,2.69a4,4,0,0,1-1.39,1.45c-.73.46-1.61.67-2.36,1.1a12,12,0,0,0-2.44,1.65,2.35,2.35,0,0,1-2.3.66,1.78,1.78,0,0,1-.9-1,4,4,0,0,1,0-1.34Zm7.9-3.09a3.86,3.86,0,0,0-5.62,2.72Z"/><path class="cls-2" d="M25.83,42a5.23,5.23,0,0,1,5.48,4.35c.25,1.18-.16,1.87-1.11,1.6a1.57,1.57,0,0,1-.84-1,4.65,4.65,0,0,0-1.62-2.42,3,3,0,0,0-3.82-.09,5.05,5.05,0,0,0-2.13,3.21c-.16.72-.74.57-1.15.47a.94.94,0,0,1-.48-.77c.28-2.16,1.09-4.28,3.91-5.14A10.21,10.21,0,0,1,25.83,42Z"/><path class="cls-2" d="M53.17,41.65a4.5,4.5,0,0,1,4.69,5.47c0,.26-.53.56-.85.63-.51.12-.89-.09-1-.73a5.43,5.43,0,0,0-.64-2.1c-1.28-1.85-2.72-2-4.26-.53a9.77,9.77,0,0,0-1.36,2.34c-.17.31-.24.73-.49.92-.62.47-1.39,0-1.41-.82C47.8,44.59,49.72,41.29,53.17,41.65Z"/></g><path class="cls-4" d="M91,121.44H2.89a.75.75,0,0,0-.75.75V146a.75.75,0,0,0,.75.75H91a.74.74,0,0,0,.75-.75V122.19A.74.74,0,0,0,91,121.44ZM35.81,126l-4.22,16.47a.53.53,0,0,1-.49.38H26.5a.53.53,0,0,1-.48-.37l-1.55-5.78c-.26-1-.7-1-1,0L22,142.48a.53.53,0,0,1-.48.37h-4.6a.53.53,0,0,1-.49-.38L12.17,126a.48.48,0,0,1,.49-.63h5.11a.53.53,0,0,1,.49.38l1.32,5.53c.27,1.09.71,1.1,1,0l1.36-5.53a.53.53,0,0,1,.49-.38h3.4a.53.53,0,0,1,.49.4l1.15,5.37c.26,1.19.7,1.19,1,0l1.29-5.4a.52.52,0,0,1,.49-.39h5.11A.48.48,0,0,1,35.81,126Zm22.85,16.35a.5.5,0,0,1-.5.5H53.71a.58.58,0,0,1-.42-.23l-4.13-6.48c-.51-.79-.92-.67-.92.27v5.94a.51.51,0,0,1-.5.5H43.06a.51.51,0,0,1-.5-.5V125.87a.51.51,0,0,1,.5-.5h4.46a.58.58,0,0,1,.42.23l4.13,6.46c.5.79.92.67.92-.27v-5.92a.5.5,0,0,1,.5-.5h4.67a.5.5,0,0,1,.5.5Zm23-.91a.56.56,0,0,1-.27.45,13.8,13.8,0,0,1-6.48,1.33,11.35,11.35,0,0,1-5.14-1.09A7.65,7.65,0,0,1,66.44,139a10.62,10.62,0,0,1,0-9.73,7.76,7.76,0,0,1,3.36-3.15,11.22,11.22,0,0,1,5.14-1.1,16.17,16.17,0,0,1,3.4.32,9.94,9.94,0,0,1,2.46.91.53.53,0,0,1,.26.45V131c0,.46-.33.66-.73.44a6.87,6.87,0,0,0-1.7-.68,13,13,0,0,0-3.17-.35,4.6,4.6,0,0,0-3.06,1,3.41,3.41,0,0,0-1.14,2.74,4.07,4.07,0,0,0,.93,2.91,4,4,0,0,0,3,1,3.66,3.66,0,0,0,1.3-.2v-1.15a.51.51,0,0,0-.5-.5h-.93a.5.5,0,0,1-.5-.5v-2.4a.51.51,0,0,1,.5-.5h6.13a.51.51,0,0,1,.5.5Z"/></g></g></svg>