<svg width="53" height="66" viewBox="0 0 53 66" fill="none" xmlns="http://www.w3.org/2000/svg">
<path d="M34.3485 65C32.9493 64.5239 31.6109 63.8984 30.4827 62.9462C28.8181 61.5402 27.3138 59.9791 26.1745 58.0969C25.9257 57.6873 25.6989 57.2611 25.4224 56.868C25.3339 56.7407 25.1293 56.641 24.9689 56.6244C24.626 56.5857 24.2776 56.6134 23.8573 56.6134C23.8573 57.0175 23.8628 57.405 23.8573 57.798C23.8517 58.5675 23.4536 59.038 22.7014 59.0823C22.3309 59.1044 22.0212 59.193 21.6893 59.3757C20.6662 59.9348 19.0071 59.2262 18.5978 58.1302C18.5425 57.9862 18.3766 57.798 18.2384 57.7759C17.088 57.5932 16.7064 55.9657 17.3756 55.235C17.4862 55.1132 17.5747 54.9693 17.6964 54.8087C17.1378 54.4212 16.5792 54.0559 16.0372 53.6573C14.1735 52.29 13.1448 50.4189 12.7909 48.1603C12.73 47.7562 12.4535 47.7119 12.2157 47.7728C10.6395 48.1991 9.27353 47.7507 7.93516 46.9258C6.12671 45.8076 4.25742 44.7835 2.75868 43.2335C2.10056 42.5581 1.44243 41.8717 1.17144 40.9251C1.12167 40.748 1.0553 40.5708 1 40.3937C1 39.9951 1 39.5965 1 39.1924C1.85169 37.3103 3.48316 36.5463 5.36904 36.2031C6.50831 35.9983 7.65864 35.882 8.6873 35.7437C7.9241 34.9465 7.07795 34.1106 6.30368 33.2194C5.76723 32.6049 5.91102 32.306 6.70188 32.1842C6.7793 32.1731 6.85673 32.1344 6.88438 32.1288C7.51485 32.8595 8.07342 33.6069 8.73154 34.2545C9.95377 35.4724 11.4857 36.2031 13.0508 36.8896C15.8769 38.1351 18.8744 38.5115 21.8995 38.7772C22.176 38.7994 22.4636 38.8215 22.7235 38.9156C22.8673 38.9655 23.083 39.2035 23.0554 39.2699C22.9835 39.4415 22.8176 39.6408 22.6461 39.6962C22.4028 39.7737 22.1207 39.7405 21.8608 39.7349C19.3721 39.6962 16.9387 39.3197 14.5606 38.5946C14.533 38.5835 14.4998 38.6001 14.4555 38.6112C14.3283 39.4138 14.2067 40.2221 14.0739 41.0303C13.9246 41.9215 13.7587 42.8128 13.6149 43.704C13.0951 46.959 13.6039 49.9539 16.0151 52.373C17.5968 53.9562 19.5988 54.7921 21.7557 55.3125C23.8186 55.8107 25.9146 56.0432 28.0162 55.8882C31.5059 55.6335 34.8131 54.7201 37.7331 52.7051C39.4973 51.4873 40.3933 49.7158 40.7472 47.6289C40.9574 46.3889 40.6421 45.1932 40.4099 44.014C40.0006 41.9326 39.4642 39.8733 38.9885 37.8472C37.2243 38.268 35.5707 38.733 33.884 39.0319C32.8664 39.2146 31.8045 39.1537 30.7593 39.1813C30.4385 39.1924 30.3555 38.9599 30.3555 38.6721C30.3555 38.3731 30.527 38.3067 30.7758 38.3178C32.7336 38.4008 34.5918 37.8583 36.4777 37.4321C38.2972 37.0224 40.0061 36.3415 41.5768 35.3728C43.2249 34.3542 44.4471 32.9038 44.7568 30.9331C44.9448 29.7485 44.8342 28.5195 44.5079 27.3349C43.9549 25.2811 43.3742 23.2274 42.9262 21.1515C42.6939 20.0775 42.7548 18.9482 42.6386 17.8466C42.4838 16.3631 42.9207 15.0622 43.8055 13.8775C43.789 13.8277 43.7779 13.7834 43.7613 13.7336C43.4461 13.7723 43.1142 13.7613 42.8156 13.8554C41.2062 14.3425 40.3988 15.5604 39.9564 17.0938C39.8568 17.437 39.8679 17.8411 39.3812 17.8909C38.9222 17.9352 38.6125 17.7193 38.4742 17.1602C38.17 15.9313 37.9875 14.6913 38.1203 13.4125C38.2032 12.5877 38.1369 11.7463 38.2585 10.927C38.5738 8.78464 38.1092 6.7641 37.3128 4.81552C36.9976 4.04052 36.5054 3.32641 36.0187 2.63998C35.3993 1.7764 34.8297 2.09194 34.3817 2.85587C34.0333 3.45373 33.8452 4.15123 33.4802 4.73248C32.2027 6.76963 30.3777 8.17017 28.2042 9.15C26.4345 9.94714 24.532 10.2848 22.6572 10.7055C21.623 10.938 20.5501 10.9989 19.5269 11.2646C18.7969 11.4529 18.1056 11.8127 17.4364 12.167C16.5239 12.6541 16.0317 13.5066 15.6944 14.4477C15.5782 14.7798 15.3625 15.0123 15.0252 15.0013C14.6768 14.9902 14.3615 14.8629 14.2233 14.4588C13.7919 13.1911 12.7743 12.632 11.5742 12.3054C11.3585 12.25 11.1318 12.2223 10.7667 12.1614C10.9492 12.4327 11.0322 12.6209 11.1705 12.7648C12.2102 13.8498 12.1438 15.0843 11.6627 16.3741C11.4083 17.0661 10.999 17.6252 10.4404 18.14C8.28911 20.1329 6.64104 22.4634 5.95527 25.3697C5.61238 26.8256 5.49624 28.287 6.03822 29.7374C6.28709 30.3961 6.07694 30.7947 5.52942 30.8501C5.1257 30.8944 4.86577 30.6508 4.72751 30.1304C4.00856 27.4567 4.47311 24.9268 5.7064 22.5077C6.48066 20.9854 7.49273 19.6181 8.66518 18.3781C9.09655 17.9186 9.52793 17.4591 9.98142 17.0218C11.0156 16.0198 11.3419 14.7411 10.2967 13.4845C10.0644 13.2077 9.87081 12.8922 9.71596 12.5655C9.50581 12.1227 9.59429 11.6134 9.92612 11.3366C10.1584 11.1429 10.6285 11.165 10.9824 11.1927C11.4525 11.2314 11.9171 11.3477 12.3816 11.4584C13.532 11.7407 13.6204 11.8016 15.075 13.0859C15.534 12.5545 15.9266 11.9455 16.4631 11.5027C17.5471 10.6004 18.8578 10.1741 20.2404 9.96375C22.8507 9.55964 25.4445 9.07803 27.8613 7.97089C30.0071 6.98553 31.7769 5.52963 32.9106 3.40391C33.071 3.09944 33.1761 2.7673 33.2922 2.44069C34.0554 0.353718 36.1846 0.863005 37.0805 1.90926C38.1479 3.16033 38.7784 4.64945 39.1434 6.2382C39.3535 7.15713 39.5803 8.09821 39.5969 9.03375C39.619 10.2184 39.4144 11.4086 39.3535 12.5932C39.3093 13.4457 39.3425 14.3093 39.3425 15.1618C39.3923 15.1729 39.442 15.1895 39.4918 15.2006C39.6135 15.0179 39.7351 14.8352 39.8513 14.647C41.0182 12.8091 42.611 12.5655 44.2756 12.7316C45.0554 12.8091 45.3098 13.7945 44.8287 14.575C44.5245 15.0677 44.2314 15.5714 44.0102 16.1084C43.7226 16.817 43.7171 17.5532 43.7613 18.3393C43.9327 21.074 44.8397 23.6315 45.4315 26.2665C45.8629 28.1874 46.0343 30.1304 45.5863 32.0679C45.3264 33.1972 44.6794 34.1272 43.8221 34.9078C43.6618 35.0517 43.4958 35.1901 43.2083 35.4281C43.5899 35.5056 43.8111 35.572 44.0434 35.5997C45.5255 35.7713 47.0187 35.8765 48.4898 36.1256C49.5351 36.3028 50.4642 36.8342 51.2827 37.5372C52.5049 38.6001 52.5879 39.9397 51.8855 41.3126C51.2108 42.6246 50.1102 43.6099 48.9212 44.4348C47.4778 45.4367 45.9569 46.3335 44.4415 47.2303C43.623 47.7119 42.6995 47.8171 41.7372 47.7008C41.7372 48.2378 41.7372 48.7526 41.7372 49.2619C42.3123 49.1014 42.8654 48.9187 43.4295 48.808C43.6562 48.7637 44.0544 48.7969 44.1318 48.9353C44.2646 49.1733 44.2756 49.5276 44.2148 49.81C44.154 50.1033 43.9493 50.3635 43.8221 50.6126C44.2867 50.6348 44.7291 50.6348 45.166 50.6735C46.1339 50.7566 46.8086 51.3101 47.3782 52.0519C48.8991 54.0559 48.9654 56.475 47.6437 58.6505C46.2611 60.9312 44.259 62.4093 41.7759 63.3061C39.7352 64.0423 37.6446 64.0645 35.4988 63.9371C35.5707 64.4077 35.3661 64.762 34.9292 64.9889C34.7467 65 34.5476 65 34.3485 65ZM34.3651 63.9482C34.2877 63.7877 34.2268 63.6604 34.1605 63.533C33.9503 63.1012 34.1107 62.8134 34.5918 62.8134C34.8075 62.8134 35.0232 62.8411 35.2334 62.8687C36.9368 63.1179 38.6622 63.1621 40.3269 62.7636C43.3797 62.0328 45.7135 60.2725 47.0962 57.4105C47.8096 55.9269 47.8649 54.4268 46.8252 52.9985C45.8905 51.7087 44.8066 51.3267 43.2802 51.7917C43.0534 51.8637 42.6939 51.8692 42.5391 51.7364C42.2349 51.4817 42.2515 51.0942 42.4727 50.7455C42.6386 50.4908 42.7935 50.2251 43.0202 49.8487C42.4008 50.0646 41.9086 50.2251 41.4219 50.4078C41.1841 50.4964 40.8855 50.5739 40.7417 50.7566C40.067 51.5925 39.442 52.4616 38.7618 53.3639C38.889 53.6628 39.0936 54.078 39.2429 54.5153C39.4586 55.1519 39.6245 55.8218 39.2098 56.4252C38.9388 56.8182 38.5738 57.1393 38.2862 57.5323C37.5506 58.5287 36.0906 58.6782 35.0343 58.0637C34.8905 57.9807 34.6637 57.9419 34.5089 57.9918C33.7402 58.2243 33.0765 58.036 32.5732 57.4437C32.2801 57.1005 32.0976 56.6577 31.8875 56.2978C30.1343 56.4639 28.3314 56.63 26.5285 56.8016C26.534 56.8127 26.5395 56.8625 26.5672 56.9012C27.8005 58.9494 29.1665 60.8759 31.1187 62.3152C32.0976 63.0404 33.0489 63.7932 34.3651 63.9482ZM13.5486 38.3178C12.531 37.8306 11.5576 37.3546 10.5676 36.9062C10.3077 36.7899 9.99801 36.7069 9.71596 36.7179C8.41078 36.7622 7.1056 36.7733 5.81148 36.9283C4.59478 37.0722 3.50529 37.6092 2.61489 38.4728C1.8185 39.2422 1.61388 40.1999 2.38814 41.1687C2.74209 41.6115 3.0905 42.0544 3.48869 42.453C5.29162 44.241 7.48167 45.4755 9.69384 46.649C10.1418 46.8871 10.7114 46.948 11.2313 46.9923C11.8562 47.0476 12.3927 46.3889 12.3872 45.7689C12.3816 45.0271 12.3761 44.2687 12.5033 43.538C12.813 41.7942 13.2001 40.0615 13.5486 38.3178ZM44.5411 36.4854C42.4672 36.502 41.3887 36.7013 40.1223 37.2494C39.8292 37.3767 39.8015 37.5096 39.8845 37.7808C40.7804 40.5819 41.3722 43.4494 41.715 46.3667C41.7703 46.8151 41.9639 46.8815 42.2791 46.7874C42.9705 46.5826 43.6949 46.4165 44.3254 46.0789C45.4757 45.4589 46.5874 44.7448 47.6824 44.0251C48.9654 43.1781 50.1158 42.1706 50.9951 40.8919C51.2882 40.4712 51.4984 40.0338 51.3712 39.4637C51.1555 38.4783 50.4365 37.9746 49.6623 37.5096C48.075 36.5519 46.3053 36.5242 44.5411 36.4854ZM34.5034 55.3955C34.708 55.9048 34.9016 56.3587 35.0785 56.8182C35.2444 57.2389 35.5597 57.4825 35.9855 57.571C36.6049 57.6928 37.158 57.5655 37.6336 57.0894C36.7598 56.5525 36.2842 55.7498 35.991 54.8143C35.5044 55.0025 35.0453 55.1851 34.5034 55.3955ZM21.6009 56.0985C21.0036 56.176 20.3842 55.5062 20.0136 55.9989C19.5878 56.5635 19.1232 57.3275 19.5988 58.1246C19.9307 58.6837 20.622 58.8664 21.352 58.6782C20.9815 57.8202 21.2912 57.0119 21.6009 56.0985ZM37.9322 53.7569C37.5949 53.9507 37.3626 54.1112 37.1082 54.2219C36.7764 54.3659 36.7764 54.6316 36.8814 54.8807C37.0529 55.2737 37.252 55.6557 37.5009 56.0044C37.6944 56.2812 38.0484 56.403 38.3249 56.1816C38.4908 56.0487 38.618 55.7 38.5682 55.4952C38.4189 54.925 38.17 54.388 37.9322 53.7569ZM23.2379 56.9289C23.0996 56.7684 22.9724 56.4916 22.7623 56.4085C22.4249 56.2757 22.2756 56.5248 22.2258 56.8569C22.1816 57.1282 22.0488 57.3939 22.0433 57.6652C22.0378 57.8755 22.1705 58.0859 22.2424 58.2962C22.4691 58.2021 22.7899 58.1744 22.895 58.0028C23.072 57.726 23.1107 57.3607 23.2379 56.9289ZM19.3168 55.4343C19.0071 55.3844 18.6144 55.1962 18.4651 55.318C18.1941 55.5339 17.9342 55.9269 17.9176 56.2535C17.901 56.6189 18.1665 56.9898 18.6034 57.0562C18.8301 56.5414 19.0513 56.0487 19.3168 55.4343ZM33.7236 55.6612C32.8719 55.8328 32.811 55.9159 32.9936 56.6134C33.1152 57.0839 33.7346 57.3552 34.2711 57.1725C34.0941 56.6798 33.9171 56.1871 33.7236 55.6612Z" fill="#41CFEF" stroke="#41CFEF" stroke-width="0.718646" stroke-miterlimit="10"/>
<path d="M21.3523 31.0937C21.1532 31.0771 21.0205 31.0882 20.8933 31.055C19.9089 30.8225 18.4875 28.9846 18.6424 27.9882C18.7254 27.4568 19.0572 26.9475 19.3448 26.4769C19.5715 26.1171 19.9255 25.8403 20.1964 25.5026C20.9043 24.6114 22.4584 24.4785 23.2824 25.3255C23.7802 25.8348 24.3056 26.3219 24.8144 26.8202C25.3508 27.346 25.6052 28.0048 25.6163 28.73C25.6218 29.0068 25.4448 29.3444 25.2513 29.5603C24.4328 30.4682 23.3543 30.8391 22.1708 30.9775C21.8777 31.0107 21.5846 31.0605 21.3523 31.0937ZM21.8113 25.8459C21.6233 25.9178 21.4131 25.94 21.3081 26.0562C20.7661 26.6762 20.2462 27.3184 19.743 27.966C19.6711 28.0602 19.6434 28.3093 19.7098 28.3757C20.2407 28.9348 20.7937 29.4718 21.3523 30.0087C21.4131 30.0696 21.5403 30.0973 21.6344 30.0807C22.5414 29.9478 23.3986 29.6821 24.1065 29.0566C24.5655 28.6525 24.6319 28.3702 24.2226 27.9218C23.6474 27.2796 23.0225 26.6873 22.3976 26.095C22.2593 25.9621 22.0215 25.9344 21.8113 25.8459Z" fill="#41CFEF" stroke="#41CFEF" stroke-width="0.899745" stroke-miterlimit="10"/>
<path d="M44.9724 6.24942C45.0498 7.05764 44.7733 7.86586 44.3862 8.6464C44.1318 9.15568 43.7004 9.44908 43.1197 9.47122C42.5113 9.48783 42.1187 9.19443 42.1629 8.59658C42.2238 7.78836 41.9694 7.22925 41.3887 6.65353C40.714 5.98924 40.5536 5.04817 40.6752 4.1071C40.7416 3.60334 41.0845 3.23245 41.5767 3.15495C43.5013 2.85048 44.8341 3.71959 44.9779 5.87299C44.9779 5.9671 44.9724 6.06675 44.9724 6.24942ZM43.3188 8.13711C43.4847 7.72193 43.6506 7.35657 43.7723 6.97461C44.1539 5.80103 43.6285 4.58317 42.5888 4.17352C42.1408 3.99638 41.6209 4.30085 41.7316 4.71049C41.8588 5.18103 42.0081 5.70692 42.3233 6.0446C42.8542 6.61478 43.3022 7.15728 43.1861 7.98764C43.1861 8.00425 43.2303 8.03193 43.3188 8.13711Z" fill="#41CFEF" stroke="#41CFEF" stroke-width="0.449873" stroke-miterlimit="10"/>
<path d="M14.8927 7.83262C15.0752 7.19047 15.1803 6.51511 15.4734 5.92833C15.6282 5.60725 16.0707 5.28065 16.4246 5.23082C17.4809 5.08136 18.5594 5.026 19.6323 5.00939C20.3015 4.99832 20.6278 5.77333 20.2462 6.49851C20.0802 6.81958 19.7816 7.10744 19.4719 7.30119C19.0682 7.55583 18.5815 7.67208 18.1667 7.91012C17.6966 8.17583 17.21 8.45816 16.8228 8.82351C16.4357 9.18887 16.0098 9.31066 15.5508 9.18887C15.3407 9.13352 15.1416 8.84566 15.0531 8.61869C14.9701 8.4028 15.0365 8.12601 15.0365 7.8769C14.9867 7.8603 14.9425 7.84369 14.8927 7.83262ZM19.2617 6.12208C17.9566 5.3969 16.303 6.30476 16.1481 7.6278C17.1491 7.14619 18.1667 6.65351 19.2617 6.12208Z" fill="#41CFEF" stroke="#41CFEF" stroke-width="0.449873" stroke-miterlimit="10"/>
<path d="M15.0084 23.9635C16.6398 23.8472 17.7515 25.0264 18.039 26.3715C18.1773 27.0303 17.9506 27.4067 17.4252 27.2628C17.2316 27.2074 17.027 26.9306 16.9606 26.7148C16.7836 26.1723 16.5292 25.7183 16.0647 25.3806C15.3347 24.8437 14.7042 24.8215 13.9576 25.3308C13.3216 25.7626 12.9455 26.366 12.7796 27.1078C12.6911 27.5064 12.3704 27.4233 12.1436 27.368C12.0219 27.3403 11.8616 27.0746 11.8781 26.9417C12.033 25.7515 12.481 24.578 14.035 24.0964C14.3447 23.9967 14.6821 24.0022 15.0084 23.9635Z" fill="#41CFEF" stroke="#41CFEF" stroke-width="0.899745" stroke-miterlimit="10"/>
<path d="M30.1286 23.7865C31.8707 23.7865 32.9989 25.0819 32.7224 26.8146C32.7003 26.9585 32.4348 27.1246 32.2523 27.1688C31.9703 27.2297 31.7601 27.119 31.6993 26.7647C31.6329 26.3662 31.5665 25.9178 31.3453 25.6022C30.6319 24.5781 29.841 24.4785 28.9894 25.3033C28.6409 25.641 28.4806 26.1613 28.2372 26.6042C28.1432 26.7758 28.1045 27.0028 27.9662 27.108C27.6233 27.3681 27.1975 27.1135 27.1864 26.654C27.1588 25.414 28.2206 23.5872 30.1286 23.7865Z" fill="#41CFEF" stroke="#41CFEF" stroke-width="0.899745" stroke-miterlimit="10"/>
</svg>
